<?xml version="1.0" encoding="UTF-8" standalone="no"?>
<svg
   xmlns:dc="http://purl.org/dc/elements/1.1/"
   xmlns:cc="http://creativecommons.org/ns#"
   xmlns:rdf="http://www.w3.org/1999/02/22-rdf-syntax-ns#"
   xmlns:svg="http://www.w3.org/2000/svg"
   xmlns="http://www.w3.org/2000/svg"
   xmlns:sodipodi="http://sodipodi.sourceforge.net/DTD/sodipodi-0.dtd"
   xmlns:inkscape="http://www.inkscape.org/namespaces/inkscape"
   width="256"
   height="256"
   viewBox="0 0 67.733332 67.733335"
   version="1.1"
   id="svg8"
   sodipodi:docname="brand.svg"
   inkscape:version="1.0.2 (e86c870879, 2021-01-15, custom)"
   inkscape:export-filename="C:\Users\Jamie Brynes\Desktop\favicon-196.png"
   inkscape:export-xdpi="73.5"
   inkscape:export-ydpi="73.5">
  <defs
     id="defs2" />
  <sodipodi:namedview
     id="base"
     pagecolor="#ffffff"
     bordercolor="#666666"
     borderopacity="1.0"
     inkscape:pageopacity="0.0"
     inkscape:pageshadow="2"
     inkscape:zoom="0.70710678"
     inkscape:cx="146.70749"
     inkscape:cy="251.8012"
     inkscape:document-units="mm"
     inkscape:current-layer="layer2"
     inkscape:document-rotation="0"
     showgrid="true"
     units="px"
     showguides="false"
     inkscape:window-width="2560"
     inkscape:window-height="1373"
     inkscape:window-x="-9"
     inkscape:window-y="-9"
     inkscape:window-maximized="1">
    <inkscape:grid
       type="xygrid"
       id="grid44"
       dotted="false" />
  </sodipodi:namedview>
  <metadata
     id="metadata5">
    <rdf:RDF>
      <cc:Work
         rdf:about="">
        <dc:format>image/svg+xml</dc:format>
        <dc:type
           rdf:resource="http://purl.org/dc/dcmitype/StillImage" />
        <dc:title />
      </cc:Work>
    </rdf:RDF>
  </metadata>
  <g
     inkscape:groupmode="layer"
     id="layer2"
     inkscape:label="Layer 1"
     style="display:inline">
    <path
       style="fill:#3b82f6;fill-opacity:1;stroke-width:0.138604"
       d="M 32.483375,64.737561 C 28.232983,64.541667 24.737329,63.679113 21.486157,62.023996 16.602695,59.537905 13.627527,55.689481 12.297392,50.138183 12.09755,49.304143 12.05711,48.044401 12.009285,41.163585 l -0.05563,-8.004372 h 6.799765 6.799767 v 6.924992 c 0,6.653932 0.01118,6.954877 0.28566,7.68849 0.539749,1.442606 1.934314,2.480544 4.149661,3.088482 1.302031,0.357304 5.503779,0.352234 6.791589,-0.0082 2.730205,-0.764123 4.343165,-2.194877 4.701839,-4.1707 0.102026,-0.562033 0.149295,-6.958254 0.149295,-20.201512 V 7.1016923 H 29.156881 16.682537 v 3.1185847 3.118587 h 9.635329 9.63533 l -0.03702,15.350375 c -0.0353,14.638781 -0.04886,15.369944 -0.292728,15.772522 -0.550582,0.90893 -1.784808,1.361374 -2.814005,1.031561 -0.687153,-0.2202 -1.130291,-0.622073 -1.450148,-1.315103 -0.242933,-0.526374 -0.256032,-1.211695 -0.258923,-13.548526 l -0.003,-12.994111 H 21.741579 12.38582 V 10.289579 2.9435771 H 28.810375 45.23493 l -0.0025,22.2112649 c -0.0027,24.381645 0.0385,23.16158 -0.843714,25.017399 -0.591097,1.243413 -2.065555,2.721054 -3.311994,3.319139 -1.999577,0.959468 -3.545232,1.284646 -6.588501,1.38611 -6.332482,0.21113 -10.145739,-1.264167 -11.763355,-4.551083 -0.817477,-1.66107 -0.914072,-2.517134 -0.914072,-8.100837 v -4.908242 h -3.1328 -3.132888 l 0.06648,5.509503 c 0.05867,4.862395 0.09928,5.656019 0.345787,6.756938 0.783885,3.500947 2.421747,5.989609 5.126253,7.789125 2.79347,1.858711 6.092472,2.782591 11.117099,3.113328 10.552314,0.694583 17.609828,-3.377554 19.495833,-11.248964 0.233452,-0.974332 0.251835,-2.45866 0.293107,-23.666605 l 0.04404,-22.6270759 h 1.872987 1.872986 l -0.05013,22.7656799 c -0.05455,24.785194 -0.0072,23.26392 -0.813308,26.161474 -1.686745,6.063458 -6.351795,10.400825 -12.989674,12.077244 -2.839491,0.717122 -5.744766,0.960044 -9.443202,0.789586 z"
       id="path52"
       inkscape:label="Logo Path" />
  </g>
</svg>
